<svg version="1.2" xmlns="http://www.w3.org/2000/svg" viewBox="0 0 435 435" width="435" height="435">
	<style>
		.s0 { fill: #2979ff } 
	</style>
	<path id="Path 0" class="s0" d="m129.5 115.66c-1.65 0.87-4.08 2.54-5.4 3.71-1.32 1.17-11.11 19.79-21.75 41.38l-19.35 39.25c-49.21 0.04-65.3 0.47-67.5 0.99-2.2 0.52-5.12 1.79-6.5 2.82-1.37 1.03-3.53 3.41-4.78 5.28-1.25 1.88-2.55 4.98-2.87 6.91-0.33 1.93-0.09 5.19 0.53 7.25 0.62 2.06 2.58 5.4 4.37 7.41 1.79 2.01 4.71 4.26 6.5 5 2.54 1.05 12.34 1.34 44.75 1.34 32.28 0 42.22-0.3 44.75-1.33 1.79-0.74 4.38-2.67 5.75-4.29 1.38-1.63 8.13-14.52 15-28.66 6.88-14.14 12.86-25.6 13.3-25.46 0.44 0.13 3.64 6.76 7.12 14.74 3.47 7.98 11.73 26.88 18.36 42 6.62 15.13 16.08 36.73 21.03 48 4.94 11.27 9.89 22.52 10.99 25 1.11 2.48 3.74 6.1 5.86 8.06 2.11 1.96 5.64 4.15 7.84 4.86 2.41 0.78 5.39 1.02 7.5 0.59 1.93-0.39 4.63-1.29 6-2.01 1.38-0.72 3.63-2.53 5-4.02 1.38-1.49 10.51-18.97 20.31-38.84 9.79-19.88 18.34-36.75 19-37.5 0.85-0.98 3.03-1.26 7.69-0.97 4.41 0.28 8.27 1.28 12 3.12 3.02 1.49 7.37 3.72 9.66 4.96 2.28 1.24 5.21 3.25 6.5 4.48 1.29 1.22 2.79 2.23 3.34 2.23 0.55 0 2.36 1.47 4.02 3.27 1.66 1.8 4.03 4.73 5.25 6.52 1.23 1.79 2.23 3.48 2.23 3.75 0 0.27 1 1.96 2.23 3.75 1.23 1.79 5.02 8.88 8.43 15.75 3.42 6.88 7.48 13.76 9.02 15.29 1.6 1.58 4.56 3.12 6.82 3.55 2.2 0.43 5.57 0.42 7.5-0.01 1.93-0.43 4.55-1.8 5.83-3.05 1.28-1.26 5.17-7.9 8.64-14.78 3.47-6.87 6.93-13.62 7.69-15 0.77-1.37 2.67-4.52 4.23-7 1.56-2.48 4.7-6.44 6.97-8.82 2.28-2.38 6.84-5.9 10.14-7.83 3.3-1.93 7.13-4.15 8.5-4.92 1.38-0.78 7-3.49 12.5-6.01 5.5-2.52 10.85-5.33 11.88-6.25 1.03-0.92 2.95-3.36 4.25-5.42 1.47-2.33 2.37-5.26 2.37-7.75 0-2.2-0.45-4-1-4-0.55 0-0.99-0.56-0.98-1.25 0-0.69-1.68-2.93-3.75-4.99-2.08-2.05-4.33-3.74-5.02-3.75-0.69 0-5.86-2.35-11.5-5.21-5.64-2.86-11.38-5.95-12.75-6.86-1.38-0.92-4.98-3.26-8-5.21-3.02-1.95-6.69-4.82-8.14-6.39-1.45-1.56-5.09-7.11-8.09-12.34-2.99-5.23-7.53-13.77-10.08-19-2.55-5.23-6.25-11.07-8.22-13-3.25-3.18-4.11-3.5-9.28-3.49-4.24 0.01-6.52 0.58-8.94 2.25-2.35 1.62-4.94 5.63-9.38 14.49-3.37 6.74-8.43 16.05-11.25 20.68-3.21 5.3-7.35 10.41-11.12 13.73-3.82 3.38-10.36 7.45-18 11.23l-12 5.92c-24.83 0.7-26.4 0.96-30.5 3.34-3.59 2.08-5.38 4.2-8.86 10.48-2.4 4.33-8.25 15.75-13 25.37-4.84 9.81-9.24 17.5-10 17.5-0.75 0-3.54-4.85-6.32-11-2.73-6.05-9.17-20.68-14.31-32.5-5.15-11.82-14.07-32.3-19.82-45.5-5.76-13.2-12.57-28.73-15.13-34.5-2.56-5.78-5.87-11.79-7.36-13.37-1.48-1.58-4.16-3.5-5.95-4.25-1.79-0.76-5.16-1.36-7.5-1.34-2.34 0.02-5.6 0.75-7.25 1.62z"/>
</svg>